<svg xmlns="http://www.w3.org/2000/svg" viewBox="0 0 960 480" role="img" aria-label="Blog Pelatihan Korporat">
<defs>
<linearGradient id="bg" x1="0" y1="0" x2="1" y2="1">
<stop offset="0" stop-color="#f3f7f6"/><stop offset="1" stop-color="#d8ebe8"/>
</linearGradient>
<pattern id="dots" width="26" height="26" patternUnits="userSpaceOnUse">
<circle cx="3" cy="3" r="2" fill="#c3d8d5" opacity=".55"/>
</pattern>
</defs>
<rect width="960" height="480" fill="url(#bg)"/>
<rect width="960" height="480" fill="url(#dots)"/>
<circle cx="750" cy="240" r="215" fill="#ffffff" opacity=".65"/>
<circle cx="750" cy="240" r="168" fill="#e6f1f0"/>
<path d="M0 470 q240 -36 480 0 q240 36 480 0 v10 h-960 z" fill="#0f4c4c" opacity=".1"/>
<rect x="66" y="118" width="56" height="10" rx="5" fill="#c8890b"/>
<text x="70" y="166" font-family="Arial, sans-serif" font-size="21" font-weight="bold" letter-spacing="2" fill="#0f4c4c">BLOG &amp; UPDATE</text>
<text x="70" y="250" font-family="Arial, sans-serif" font-size="30" font-weight="bold" fill="#0a3535">Blog Pelatihan Korporat</text>
<g transform="translate(630 120) scale(1.2)">
<rect x="30" y="35" width="115" height="140" rx="10" fill="#ffffff" stroke="#0f4c4c" stroke-width="6"/>
<rect x="145" y="60" width="26" height="115" rx="8" fill="#c3d8d5"/>
<rect x="44" y="52" width="60" height="40" rx="5" fill="#c8890b"/>
<rect x="44" y="106" width="88" height="8" rx="4" fill="#c3d8d5"/>
<rect x="44" y="124" width="88" height="8" rx="4" fill="#c3d8d5"/>
<circle cx="160" cy="42" r="14" fill="#c8890b"/>
<text x="160" y="47" text-anchor="middle" font-family="Arial" font-size="13" font-weight="bold" fill="#ffffff">!</text>
</g>
</svg>